<svg xmlns="http://www.w3.org/2000/svg" version="1.1" xmlns:xlink="http://www.w3.org/1999/xlink" xmlns:svgjs="http://svgjs.dev/svgjs" width="2000" height="2250" viewBox="0 0 2000 2250"><g transform="matrix(1,0,0,1,0.000015624999718966137,0)"><svg viewBox="0 0 320 360" data-background-color="#ffffff" preserveAspectRatio="xMidYMid meet" height="2250" width="2000" xmlns="http://www.w3.org/2000/svg" xmlns:xlink="http://www.w3.org/1999/xlink"><g id="tight-bounds" transform="matrix(1,0,0,1,0.0000025000000505315256,0)"><svg viewBox="0 0 320 360" height="360" width="320"><g><svg></svg></g><g><svg viewBox="0 0 320 360" height="360" width="320"><g><path transform="translate(-19.44751,3.1739) scale(3.53591,3.53591)" d="M67.6 10.7c0.2 0 1.8 0.8 2.7 1.1-0.3 0.1-1-0.2-1.8-0.5 0.2 0 0.6 0.1 1 0.3-0.2-0.2-1.7-0.7-1.9-0.9M52.7 7.6c0.3-0.1 3.8 0.4 5.4 0.5 0.1-0.1-0.2-0.1-0.6-0.2 0.5-0.1 1.5 0.2 2.2 0.3-2.1 0.1-4.4-0.5-6.4-0.3-0.7 0-0.2-0.2-0.6-0.3M49.8 7.6c1.8 0 3.2 0 0.6 0.2-0.3-0.1-0.7-0.1-0.6-0.2M78.1 15.9c0.2 0 1 0.9 1.4 1.2-0.1 0.1-0.9-0.7-1.3-1 0.1 0.1 0 0-0.1-0.2M76.1 14.6c-0.8-0.7-1.1-0.7-1.2-1.1 0.7 0.4 1.2 0.8 1.2 1.1M63.2 8.3c0.1-0.1 0.3 0.1 0.8 0.2-0.6-0.1-0.5 0-0.3 0.2-0.7-0.1-0.9-0.2-0.7-0.4 0.4 0.2 0.5 0.1 0.2 0M34.8 9.5c0-0.1 0.4-0.3 0.7-0.4-0.3 0.2-0.2 0.3 0.3 0.1 0 0.1-0.6 0.3-1 0.5 0.2-0.1 0.4-0.4 0-0.2M65.2 7.3c-0.3 0.1-1.4-0.5-2.5-0.7-0.6-0.2 2.4 0.5 2.5 0.7M6.2 56.7c0.6 2.5 0.2 2.4 0 0M6.3 41.7c0.1-0.4 0.2-1.5 0.3-1.4-0.3 2.4-0.8 3.5-0.9 5.3 0.3-1.6-0.1 0.9-0.2 1.5 0.1 0.8 0.1-0.5 0.3-0.3 0.2 0.3-0.4 4.5-0.2 2.2-0.2 2.1 0 4.4 0.4 5-0.5 3.2 2 10.4 2.5 11.9 0.1 0.1 0-0.5 0.2-0.1 0.2 1.3 1.1 2.2 1.4 3.6 0.3 0.4 1.5 2.6 1.7 3.1 0.4 0.8 0.6 0.7 1 1.5 1.2 2.3 3.1 4.5 4.9 6.6 5.8 6.8 14.7 12.4 24.6 14.4 9.9 2.1 20.3 0.6 28.4-3.3 0.5-0.3 0.4-0.4 1-0.6 2.8-0.9 6.2-3.8 8.1-4.9 0.9-1 3.3-2.7 3.6-3.7 1.7-1.4 3.4-3.7 4.3-5.2 0.5-0.8 0.9-0.8 1.1-1.3-0.1 0 1.6-2.1 2.1-3.3-0.2 0-0.5 0.6-0.5 0 3.6-6.9 5.6-16.2 4.5-22.6 0.2 7.9-1.8 16.7-5.6 22.3-1.7 3.6-5.2 7.5-8.4 10.3-0.5 0.5-1 1.1-1.6 1.5-1.9 1.6-4 2.9-6.2 4.1-5.2 2.9-11 5.4-17.8 5.5 11.7-1 22.2-6.9 28-14.1-4.4 4.3-6.3 6-11.2 8.5-0.4 0.7-3.7 2.1-5.9 2.7 1.3-0.6 4-1.6 4.9-2.4-7.3 3.5-15.4 5.5-23 4.4 2.9 0 7 0.1 10.9-0.6 0.6-0.2 0.9-0.4 1.6-0.5 7.6-1.7 14.9-5.4 20.1-10.6-3 2.7-7.5 5.9-10.4 6.9 2.7-1.5 7.6-4.4 9.2-6.6-3.2 3.2-9.2 6.4-13 7.8-0.6 0.1 0.4-0.4-0.6 0-1.2 0.3-0.7 0.3-1 0.5-4.6 1.3-9.9 2.4-14.3 2-0.8-0.1-1.1-0.3-1.8-0.3-0.8-0.1-1.5-0.1-2.4-0.1-3.5-0.4-7.3-1.8-10.1-3-1.5-0.7-3-1.2-4.5-2.1-1.2-0.7-2.2-1.5-3.2-2.3-3.8-2.8-7-5.6-10-9.6-5.4-7.5-8.2-16.9-7.8-26.2 0.4-9.3 4.1-18.4 10-25.1-0.3 0.3 0.4-0.7 1-1.3 0 0.2-0.1 0.5 0.6-0.2 0.6-0.7-0.2-0.2 0.1-0.6 6.2-6.8 17-12.3 28.1-12.5 0.4-0.3 1.1-0.7 1.9-0.5 0 0.1-0.5 0.1-0.5 0.1 1.1-0.1 2.1-0.1 2.6 0.1 0.1-0.1-0.4-0.2 0-0.2 0.7 0.2 0.9 0 1.3 0.2-0.3 0-0.6 0-0.8 0.1 2.5 0 4.1 0.6 6.6 0.8-1.3-0.3-1.6-0.3-2.6-0.6 1.1 0.2 1.6 0.4 2.1 0.3-0.2 0-0.1-0.3 0.1-0.2 2 0.5 2.2 0.7 4.3 1.4 0.2-0.2-0.9-0.3-1.2-0.6 2 0.7 3.8 1.2 5 2-0.4-0.3-1.6-0.7-2.5-1.1-0.1 0.1 0.3 0.2 0.4 0.4-1-0.5-2.4-1-3.8-1.2 1.2 0.3 2 0.7 2.5 0.9-1.1-0.2-2.5-0.9-4.1-1.2 2.6 0.8 7.5 2.6 10.5 4.2-1.1-0.7-2.4-1.2-3.1-1.6 0.6 0.1 1.3 0.5 1.3 0.3 0.7 0.3 1.6 1 2.1 1.1-0.9-0.6-2.7-1.5-3.3-1.8 7.5 3.4 14.2 9.1 18.5 16.4 0.4 0.7 1 2.3 1.5 2.5-0.1-0.5-0.5-0.8-0.9-1.6 0.2 0 0.2-0.3 0-0.6-0.4-0.5 0 0.4-0.4-0.1-1.8-3.3-4-6.2-7.4-9.4 1.9 1.8 0.5 0.5 0.1-0.1 2.6 2.3 5.6 6.2 6.9 8.2-0.2-0.3-0.3-0.5-0.2-0.5 2.4 4.1 3.9 7.8 5.4 13.1 0.1 0.1 0-0.4 0.2-0.1 1 4.2 1.3 7.7 1.2 10.9 0.8-5.4-1-13.8-4.2-20.4-0.4-0.8-0.4-0.2-0.8-1.1 0-0.3-0.3-0.9-0.5-1.3-4-6.6-8.9-11.3-14.7-15 0.4 0.2 1.2 0.8 1.2 0.7-10.8-7.1-23.3-8.1-33.6-5.9-0.7 0.3-1 0.6-1.8 1 1.5-0.5 2.4-0.6 3.8-0.9 0.3-0.3-1.3 0.1-0.6-0.2 0.1 0.1 1.4-0.2 1.7-0.1 0 0.1-0.4 0.2-0.5 0.3 3.3-0.7 6.7-0.8 9.6-0.6-1.7 0.1-4.8-0.2-5.8 0.3 1-0.1 2.4-0.2 3.3-0.1-1.2 0-3.4 0.1-4.4 0.2-0.1-0.1 1.6-0.3 0.5-0.3-0.5 0.1-1.3 0.1-1.6 0.4-8.6 0.8-17 5.3-22.9 10.6-1.2 1-2.6 2.1-3.5 3.2-2.2 2.5-3.6 5-5.2 7.2 1-2.1 3.2-5.3 5.8-8 2.6-2.7 5.4-5 6.9-6.2 0 0.4 2.4-1.5 3.3-2.1-0.6 0.5 0.4-0.2 0.6-0.1 3.2-1.9 5.8-2.6 8.7-3.7-0.7 0.2-1.3 0.4-1.4 0.3 0.7-0.2 1.1-0.4 1-0.5-2.8 0.8-7.2 2.7-10.7 4.8 6.3-4.3 14.3-6.9 22.2-7 7.9-0.2 15.6 1.8 21.7 5 4.1 1.8 8 5.1 11.1 8.3 0.9 0.8 0.2-0.2 1.5 1.2-0.4-0.2-0.7-0.4-0.2 0.2 0.8 0.9-0.2-0.7 1.1 0.9-0.1 0-0.5-0.5-0.5-0.3 3.5 3.1 6.2 8.7 7.8 12.4-0.4-1.5-1.4-3.6-2.2-5.1 2.4 4.4 3.2 7 4.2 10.9 0.4 0.3-0.2-1.4 0.2-0.6 0.1 0.6 0.2 2.5 0.6 2.8-0.3-1.9-0.8-4.2-1.2-4.6 0.3 0.2-0.5-2.3-1-2.9-0.2-1.6-1.6-4.4-2.8-6.5-4.3-8.4-12-15.3-20.6-19.1 0-0.2-0.5-0.4-0.7-0.6-8.5-3.6-18.7-4.6-28.5-2.3-9.9 2.4-19.2 8.1-25.8 16.3 0.3-1 2.8-2.9 2.9-3.7-2.9 3.1-6 7.2-8.1 11.6-2.2 4.4-3.4 8.9-3.9 12.2" fill="#111111" fill-rule="nonzero" stroke="none" stroke-width="1" stroke-linecap="butt" stroke-linejoin="miter" stroke-miterlimit="10" stroke-dasharray="" stroke-dashoffset="0" font-family="none" font-weight="none" font-size="none" text-anchor="none" style="mix-blend-mode: normal" data-fill-palette-color="tertiary"></path></g><g transform="matrix(1,0,0,1,48,90)"><svg viewBox="0 0 224 180" height="180" width="224"><g><svg viewBox="0 0 224 180" height="180" width="224"><g><svg viewBox="0 0 224 180" height="180" width="224"><g><svg viewBox="0 0 224 180" height="180" width="224"><g><svg viewBox="0 0 224 180" height="180" width="224"><g transform="matrix(1,0,0,1,50.84312016937683,36.966991411008934)"><svg viewBox="0 0 122.31375966124634 106.06601717798213" height="106.06601717798213" width="122.31375966124634"><g><circle r="53" cx="61.15687983062317" cy="53.033008588991066" fill="#fbc8f3" data-fill-palette-color="accent"></circle><svg xmlns="http://www.w3.org/2000/svg" data-name="Layer 1" viewBox="3.9624404694400663 4.52 92.0751190611195 90.95" x="19.79898987322333" y="19.79898987322333" height="66.46803743153546" width="82.71577991479968" class="icon-qn-0" data-fill-palette-color="quaternary" id="qn-0"><path d="M26.29 58.6V81.7H73.71V58.6a2 2 0 0 1 4 0V83.7a2 2 0 0 1-2 2H24.29a2 2 0 0 1-2-2V58.6a2 2 0 0 1 4 0ZM89.41 81.7H87.48V59.36a2 2 0 0 0-4 0V83.7a2 2 0 0 0 2 2h3.93a2.89 2.89 0 0 1 0 5.77H10.59a2.89 2.89 0 0 1 0-5.77h3.93a2 2 0 0 0 2-2V59.36a2 2 0 1 0-4 0V81.7H10.59a6.89 6.89 0 0 0 0 13.77H89.41a6.89 6.89 0 0 0 0-13.77ZM81.85 52.6A13.83 13.83 0 0 1 71.2 47.55 13.82 13.82 0 0 1 60.56 52.6 13.66 13.66 0 0 1 50 47.67 13.66 13.66 0 0 1 39.44 52.6a13.82 13.82 0 0 1-10.64-5.06A13.82 13.82 0 0 1 18.15 52.6q-0.48 0-0.94 0A12.63 12.63 0 0 1 7.13 46.35a13.43 13.43 0 0 1-0.75-12.41L17.47 9.29a8.09 8.09 0 0 1 7.37-4.77H75.16a8.09 8.09 0 0 1 7.37 4.77L93.61 33.94a13.43 13.43 0 0 1-0.75 12.41 12.63 12.63 0 0 1-10.08 6.22C82.48 52.59 82.17 52.6 81.85 52.6Zm0-4l0.67 0a8.68 8.68 0 0 0 6.92-4.29A9.43 9.43 0 0 0 90 35.58L78.88 10.93a4.08 4.08 0 0 0-3.72-2.41H24.84a4.08 4.08 0 0 0-3.72 2.41L10 35.58a9.43 9.43 0 0 0 0.53 8.71 8.68 8.68 0 0 0 6.92 4.29h0l0.67 0A9.81 9.81 0 0 0 27 43a2 2 0 0 1 3.62 0 9.81 9.81 0 0 0 8.83 5.62 9.71 9.71 0 0 0 8.77-5.48 2 2 0 0 1 3.59 0 9.71 9.71 0 0 0 8.77 5.48A9.81 9.81 0 0 0 69.4 43 2 2 0 0 1 73 43 9.81 9.81 0 0 0 81.85 48.6Z" fill="#111111" data-fill-palette-color="quaternary"></path></svg></g></svg></g><path d="M37.069 60.893L39.239 60.666C39.298 60.851 39.349 61.1 39.392 61.416 39.433 61.737 39.446 62.099 39.43 62.502 39.421 62.907 39.38 63.344 39.306 63.812 39.23 64.288 39.106 64.778 38.934 65.285V65.285C38.569 66.356 38.056 67.255 37.394 67.981 36.733 68.701 35.984 69.251 35.146 69.632 34.317 70.008 33.432 70.211 32.491 70.242 31.557 70.274 30.622 70.131 29.685 69.813V69.813C28.653 69.461 27.764 68.951 27.018 68.282 26.279 67.615 25.704 66.854 25.294 65.999 24.877 65.142 24.64 64.22 24.582 63.234 24.522 62.255 24.657 61.278 24.989 60.303V60.303C25.114 59.937 25.266 59.574 25.446 59.213 25.626 58.852 25.818 58.52 26.021 58.217 26.218 57.912 26.421 57.652 26.63 57.437 26.839 57.222 27.029 57.064 27.199 56.965V56.965C27.318 57.12 27.42 57.24 27.505 57.327 27.582 57.417 27.663 57.513 27.751 57.614 27.838 57.716 27.939 57.829 28.054 57.954 28.162 58.076 28.311 58.238 28.501 58.439V58.439C28.328 58.566 28.167 58.726 28.016 58.917 27.862 59.116 27.72 59.325 27.587 59.545 27.462 59.767 27.344 59.998 27.233 60.24 27.124 60.475 27.036 60.692 26.968 60.89V60.89C26.72 61.622 26.623 62.347 26.678 63.067 26.736 63.781 26.918 64.444 27.225 65.057 27.534 65.663 27.945 66.2 28.458 66.668 28.974 67.13 29.562 67.473 30.223 67.698V67.698C30.864 67.916 31.521 68.004 32.194 67.961 32.876 67.914 33.52 67.754 34.128 67.482 34.745 67.205 35.296 66.806 35.781 66.284 36.271 65.771 36.64 65.149 36.889 64.417V64.417C37.022 64.026 37.112 63.635 37.16 63.243 37.207 62.851 37.23 62.49 37.228 62.16 37.232 61.833 37.217 61.552 37.182 61.318 37.145 61.091 37.107 60.949 37.069 60.893ZM33.923 57.718V57.718C33.048 57.244 32.306 56.622 31.697 55.853 31.095 55.088 30.653 54.247 30.371 53.332 30.095 52.419 29.997 51.476 30.077 50.503 30.158 49.529 30.442 48.593 30.929 47.693V47.693C31.41 46.806 32.038 46.059 32.812 45.454 33.587 44.849 34.432 44.413 35.347 44.146 36.268 43.883 37.216 43.791 38.189 43.872 39.168 43.955 40.096 44.234 40.972 44.709V44.709C41.877 45.199 42.626 45.829 43.219 46.597 43.819 47.368 44.253 48.209 44.523 49.118 44.8 50.03 44.893 50.975 44.803 51.951 44.713 52.927 44.428 53.859 43.947 54.747V54.747C43.46 55.646 42.834 56.397 42.068 56.999 41.302 57.602 40.462 58.036 39.547 58.303 38.638 58.573 37.698 58.665 36.728 58.579 35.763 58.496 34.829 58.209 33.923 57.718ZM34.977 55.816V55.816C35.626 56.167 36.298 56.377 36.993 56.446 37.692 56.508 38.365 56.445 39.014 56.258 39.666 56.064 40.266 55.753 40.813 55.326 41.364 54.892 41.811 54.359 42.153 53.728V53.728C42.495 53.097 42.694 52.438 42.75 51.752 42.809 51.059 42.74 50.39 42.543 49.744 42.343 49.104 42.026 48.508 41.592 47.958 41.156 47.413 40.607 46.961 39.945 46.603V46.603C39.302 46.254 38.633 46.046 37.938 45.978 37.24 45.915 36.566 45.978 35.917 46.166 35.265 46.36 34.665 46.67 34.118 47.098 33.574 47.52 33.13 48.046 32.788 48.678V48.678C32.446 49.309 32.244 49.974 32.181 50.672 32.122 51.364 32.191 52.033 32.388 52.679 32.589 53.32 32.908 53.917 33.348 54.471 33.791 55.019 34.334 55.467 34.977 55.816ZM48.493 46.891L36.858 37.233C37.082 37.26 37.516 37.295 38.159 37.336 38.808 37.382 39.556 37.435 40.404 37.496 41.256 37.551 42.161 37.612 43.12 37.676 44.074 37.747 44.972 37.81 45.815 37.867 46.662 37.927 47.396 37.977 48.015 38.016 48.64 38.059 49.052 38.088 49.25 38.103V38.103C49.224 38.029 49.168 37.815 49.083 37.462 48.987 37.11 48.87 36.674 48.73 36.153 48.6 35.631 48.449 35.039 48.276 34.376 48.104 33.714 47.931 33.037 47.756 32.346 47.572 31.656 47.39 30.973 47.212 30.296 47.029 29.616 46.867 28.993 46.728 28.429 46.589 27.855 46.461 27.362 46.346 26.949 46.23 26.536 46.155 26.245 46.12 26.075V26.075L57.755 35.733 56.275 37.516 50.036 32.337C49.952 32.267 49.873 32.188 49.797 32.099 49.716 32.005 49.655 31.941 49.613 31.907V31.907C49.66 32.104 49.748 32.423 49.875 32.864 50.003 33.304 50.141 33.811 50.291 34.384 50.45 34.956 50.619 35.559 50.798 36.192 50.971 36.82 51.137 37.416 51.295 37.978 51.453 38.541 51.593 39.036 51.715 39.462 51.832 39.894 51.917 40.194 51.971 40.362V40.362C51.821 40.352 51.512 40.333 51.042 40.304 50.577 40.27 50.032 40.232 49.408 40.189 48.783 40.146 48.122 40.099 47.425 40.048 46.722 39.993 46.073 39.943 45.477 39.897 44.875 39.847 44.359 39.806 43.928 39.774 43.492 39.747 43.23 39.723 43.142 39.702V39.702C43.184 39.737 43.258 39.785 43.365 39.848 43.466 39.906 43.559 39.969 43.642 40.038V40.038L49.882 45.218ZM67.541 27.872L59.975 34.079 50.791 22.883 58.145 16.85 59.402 18.383 53.745 23.023 56.426 26.291 61.462 22.16 62.745 23.724 57.708 27.855 60.39 31.123 66.259 26.309ZM69.405 11.006V11.006L69.634 12.926C69.062 13.037 68.514 13.177 67.992 13.345 67.467 13.522 66.992 13.737 66.566 13.99V13.99C65.85 14.415 65.364 14.904 65.109 15.457 64.854 16.01 64.861 16.513 65.131 16.968V16.968C65.363 17.358 65.704 17.581 66.154 17.637 66.601 17.687 67.11 17.669 67.681 17.582 68.256 17.501 68.866 17.395 69.513 17.264 70.163 17.138 70.806 17.087 71.443 17.111 72.079 17.135 72.685 17.28 73.26 17.546 73.838 17.817 74.339 18.308 74.76 19.019V19.019C75.085 19.567 75.277 20.122 75.336 20.686 75.4 21.247 75.329 21.805 75.123 22.36 74.917 22.916 74.57 23.452 74.082 23.97 73.597 24.494 72.958 24.991 72.166 25.461V25.461C71.665 25.758 71.189 25.993 70.74 26.165 70.291 26.337 69.87 26.465 69.478 26.547 69.09 26.636 68.735 26.689 68.414 26.706 68.097 26.729 67.82 26.739 67.583 26.738V26.738L67.444 24.611C68.054 24.604 68.687 24.516 69.343 24.347 70.001 24.169 70.558 23.946 71.012 23.676V23.676C71.245 23.538 71.515 23.342 71.822 23.089 72.126 22.831 72.388 22.537 72.611 22.208 72.837 21.885 72.988 21.535 73.064 21.159 73.144 20.789 73.075 20.42 72.857 20.053V20.053C72.66 19.721 72.405 19.49 72.092 19.361 71.779 19.232 71.42 19.165 71.016 19.16 70.621 19.158 70.194 19.195 69.734 19.271 69.281 19.343 68.814 19.419 68.334 19.499 67.85 19.573 67.372 19.636 66.898 19.689 66.422 19.735 65.965 19.722 65.529 19.65 65.092 19.578 64.687 19.433 64.313 19.214 63.944 18.991 63.624 18.65 63.351 18.189V18.189C63.098 17.764 62.936 17.297 62.863 16.789 62.792 16.272 62.834 15.751 62.987 15.226 63.141 14.702 63.413 14.19 63.802 13.692 64.201 13.195 64.738 12.747 65.414 12.346V12.346C65.828 12.1 66.251 11.897 66.682 11.735 67.12 11.57 67.523 11.433 67.892 11.325 68.265 11.222 68.589 11.144 68.864 11.091 69.134 11.041 69.314 11.013 69.405 11.006ZM72.03 8.837L80.678 5.153 81.49 7.06 78.134 8.49 82.998 19.905 80.988 20.761 76.124 9.346 72.843 10.745ZM88.468 17.847L84.011 4.068 86.08 3.399 90.537 17.177ZM94.919 3.481L93.216 3.827 94.067 8.009 95.989 7.619C96.693 7.476 97.178 7.159 97.445 6.669 97.711 6.18 97.784 5.636 97.663 5.038V5.038C97.52 4.335 97.203 3.863 96.712 3.624 96.22 3.386 95.623 3.338 94.919 3.481ZM96.18 9.478L94.437 9.832 95.312 14.134 97.314 13.727C97.692 13.65 98.039 13.535 98.353 13.381 98.666 13.22 98.927 13.026 99.136 12.796 99.353 12.572 99.504 12.31 99.588 12.01 99.678 11.701 99.685 11.364 99.611 10.999V10.999C99.529 10.594 99.374 10.276 99.147 10.046 98.927 9.814 98.657 9.641 98.337 9.526 98.024 9.417 97.681 9.362 97.308 9.362 96.934 9.362 96.559 9.401 96.18 9.478ZM97.878 15.634L93.556 16.513 90.671 2.322 94.425 1.559C95.122 1.417 95.764 1.359 96.35 1.386 96.941 1.404 97.462 1.519 97.913 1.731 98.366 1.95 98.745 2.267 99.05 2.682 99.357 3.104 99.578 3.647 99.713 4.31V4.31C99.787 4.676 99.828 5.044 99.834 5.416 99.833 5.783 99.779 6.129 99.672 6.455 99.572 6.78 99.409 7.082 99.183 7.363 98.962 7.636 98.667 7.873 98.3 8.072V8.072C98.651 8.063 99.008 8.104 99.373 8.196 99.737 8.288 100.079 8.439 100.399 8.651 100.711 8.864 100.991 9.149 101.236 9.507 101.475 9.867 101.649 10.315 101.759 10.853V10.853C101.896 11.53 101.885 12.137 101.725 12.674 101.563 13.205 101.299 13.674 100.932 14.08 100.564 14.48 100.112 14.807 99.576 15.061 99.048 15.32 98.482 15.512 97.878 15.634ZM114.017 14.158L104.641 14.676 103.843 0.216 106.035 0.096 106.719 12.485 113.903 12.088ZM125.187 15.265L115.436 14.428 116.676 0 126.152 0.814 125.983 2.788 118.693 2.162 118.331 6.374 124.821 6.932 124.648 8.946 118.158 8.389 117.796 12.601 125.36 13.25ZM138.295 4.49V4.49L137.119 6.025C136.632 5.705 136.142 5.423 135.651 5.178 135.151 4.939 134.661 4.761 134.18 4.645V4.645C133.37 4.449 132.681 4.46 132.112 4.678 131.544 4.896 131.198 5.261 131.073 5.775V5.775C130.967 6.216 131.055 6.614 131.339 6.968 131.624 7.316 132.001 7.658 132.47 7.995 132.938 8.338 133.449 8.688 134.004 9.046 134.557 9.41 135.053 9.822 135.492 10.284 135.931 10.746 136.264 11.272 136.49 11.864 136.715 12.462 136.73 13.162 136.536 13.966V13.966C136.386 14.585 136.135 15.117 135.784 15.561 135.439 16.008 134.999 16.358 134.463 16.611 133.928 16.865 133.305 17.007 132.593 17.037 131.88 17.074 131.076 16.984 130.181 16.767V16.767C129.614 16.63 129.11 16.466 128.669 16.276 128.227 16.085 127.837 15.883 127.498 15.669 127.158 15.461 126.867 15.251 126.626 15.039 126.383 14.834 126.177 14.648 126.008 14.482V14.482L127.393 12.862C127.835 13.283 128.35 13.662 128.937 13.999 129.533 14.331 130.088 14.559 130.601 14.684V14.684C130.865 14.747 131.194 14.796 131.591 14.829 131.988 14.856 132.382 14.829 132.771 14.749 133.158 14.675 133.51 14.53 133.827 14.314 134.143 14.105 134.351 13.793 134.451 13.378V13.378C134.542 13.002 134.52 12.659 134.387 12.348 134.253 12.037 134.043 11.739 133.756 11.453 133.475 11.176 133.143 10.904 132.762 10.637 132.387 10.372 131.999 10.101 131.599 9.823 131.201 9.539 130.815 9.25 130.439 8.957 130.066 8.657 129.748 8.329 129.485 7.973 129.223 7.617 129.034 7.23 128.92 6.812 128.811 6.395 128.82 5.927 128.946 5.407V5.407C129.062 4.926 129.272 4.478 129.574 4.064 129.885 3.644 130.278 3.3 130.754 3.032 131.23 2.764 131.782 2.587 132.409 2.502 133.041 2.424 133.739 2.478 134.503 2.663V2.663C134.97 2.776 135.415 2.926 135.837 3.111 136.266 3.299 136.65 3.482 136.99 3.662 137.328 3.849 137.615 4.019 137.849 4.173 138.077 4.326 138.226 4.432 138.295 4.49ZM149.818 20.677L149.853 22.86C149.664 22.902 149.411 22.931 149.093 22.946 148.769 22.958 148.407 22.939 148.008 22.888 147.605 22.844 147.174 22.764 146.713 22.649 146.247 22.532 145.769 22.365 145.279 22.149V22.149C144.244 21.691 143.394 21.101 142.729 20.377 142.07 19.656 141.588 18.862 141.282 17.994 140.981 17.134 140.856 16.235 140.909 15.295 140.958 14.362 141.183 13.443 141.583 12.538V12.538C142.024 11.54 142.61 10.699 143.342 10.016 144.071 9.338 144.88 8.832 145.768 8.499 146.659 8.159 147.598 8.004 148.585 8.033 149.566 8.059 150.527 8.28 151.469 8.697V8.697C151.822 8.853 152.171 9.036 152.514 9.248 152.858 9.459 153.172 9.679 153.456 9.908 153.742 10.131 153.983 10.356 154.179 10.583 154.375 10.811 154.515 11.013 154.599 11.191V11.191C154.435 11.296 154.305 11.387 154.212 11.465 154.115 11.533 154.012 11.606 153.904 11.684 153.795 11.762 153.674 11.853 153.539 11.956 153.407 12.053 153.233 12.187 153.017 12.358V12.358C152.905 12.176 152.76 12.001 152.583 11.833 152.399 11.663 152.203 11.502 151.995 11.351 151.785 11.207 151.565 11.069 151.334 10.937 151.11 10.808 150.901 10.701 150.709 10.616V10.616C150.003 10.304 149.289 10.144 148.566 10.136 147.85 10.13 147.174 10.254 146.536 10.505 145.906 10.76 145.334 11.122 144.823 11.592 144.318 12.065 143.924 12.621 143.642 13.259V13.259C143.368 13.879 143.223 14.526 143.206 15.2 143.193 15.883 143.296 16.539 143.514 17.169 143.735 17.807 144.084 18.391 144.561 18.921 145.03 19.454 145.617 19.876 146.323 20.188V20.188C146.701 20.355 147.083 20.48 147.469 20.561 147.855 20.643 148.213 20.698 148.542 20.724 148.868 20.757 149.149 20.767 149.385 20.753 149.615 20.736 149.759 20.71 149.818 20.677ZM153.257 17.823V17.823C153.807 16.992 154.491 16.308 155.31 15.769 156.125 15.236 157.002 14.87 157.938 14.669 158.872 14.474 159.82 14.459 160.782 14.625 161.745 14.79 162.653 15.155 163.506 15.72V15.72C164.348 16.277 165.036 16.967 165.571 17.792 166.106 18.617 166.466 19.497 166.652 20.432 166.833 21.373 166.842 22.324 166.676 23.287 166.507 24.255 166.147 25.155 165.598 25.986V25.986C165.03 26.844 164.337 27.536 163.52 28.059 162.699 28.588 161.823 28.947 160.894 29.137 159.961 29.332 159.012 29.342 158.047 29.167 157.083 28.992 156.179 28.626 155.338 28.069V28.069C154.484 27.504 153.791 26.815 153.258 25.999 152.726 25.184 152.366 24.308 152.181 23.373 151.991 22.444 151.982 21.5 152.154 20.541 152.321 19.588 152.689 18.682 153.257 17.823ZM155.06 19.039V19.039C154.652 19.655 154.384 20.306 154.255 20.993 154.132 21.683 154.135 22.359 154.265 23.022 154.401 23.689 154.658 24.313 155.036 24.896 155.419 25.483 155.911 25.975 156.51 26.371V26.371C157.109 26.767 157.747 27.023 158.426 27.139 159.11 27.258 159.783 27.249 160.444 27.109 161.099 26.966 161.72 26.702 162.307 26.319 162.888 25.931 163.386 25.424 163.801 24.797V24.797C164.205 24.187 164.471 23.538 164.6 22.852 164.723 22.162 164.72 21.486 164.59 20.823 164.454 20.156 164.197 19.532 163.819 18.949 163.447 18.369 162.961 17.882 162.362 17.485V17.485C161.763 17.089 161.119 16.829 160.429 16.706 159.745 16.586 159.072 16.596 158.411 16.736 157.756 16.879 157.133 17.145 156.542 17.535 155.958 17.928 155.463 18.429 155.06 19.039ZM164.459 34.833L162.863 33.326 172.808 22.799 175.682 25.514C176.233 26.035 176.673 26.586 177.001 27.166 177.319 27.746 177.511 28.338 177.576 28.94 177.641 29.542 177.572 30.133 177.368 30.714 177.159 31.3 176.804 31.859 176.301 32.391V32.391C176.027 32.681 175.725 32.941 175.396 33.171 175.072 33.405 174.718 33.593 174.334 33.733 173.954 33.878 173.554 33.966 173.133 33.997 172.718 34.033 172.29 33.992 171.85 33.876V33.876C171.663 34.854 171.446 35.926 171.201 37.093 170.952 38.265 170.728 39.423 170.531 40.57V40.57L168.625 38.769C168.717 38.287 168.815 37.784 168.92 37.258 169.02 36.728 169.118 36.206 169.213 35.69 169.314 35.17 169.414 34.659 169.515 34.158 169.611 33.652 169.7 33.182 169.784 32.748V32.748L169.496 32.476 168.011 31.073ZM173.008 25.784L169.428 29.574 170.868 30.935C171.252 31.297 171.635 31.538 172.017 31.657 172.409 31.775 172.769 31.808 173.099 31.755 173.428 31.703 173.729 31.596 174.002 31.435 174.28 31.269 174.506 31.095 174.678 30.913V30.913C174.85 30.73 175.009 30.498 175.154 30.216 175.295 29.939 175.377 29.635 175.401 29.303 175.425 28.972 175.367 28.619 175.227 28.244 175.092 27.874 174.837 27.513 174.463 27.159V27.159ZM172.588 43.486L171.24 41.753 182.668 32.86 185.096 35.98C185.562 36.579 185.913 37.19 186.149 37.813 186.375 38.435 186.475 39.049 186.448 39.653 186.421 40.258 186.262 40.832 185.972 41.375 185.677 41.923 185.241 42.421 184.663 42.87V42.87C184.348 43.116 184.01 43.327 183.65 43.504 183.294 43.687 182.916 43.818 182.515 43.899 182.118 43.984 181.709 44.011 181.288 43.977 180.872 43.95 180.455 43.844 180.039 43.662V43.662C179.704 44.6 179.328 45.628 178.908 46.744 178.484 47.864 178.087 48.975 177.718 50.078V50.078L176.107 48.009C176.271 47.547 176.445 47.064 176.629 46.561 176.808 46.052 176.984 45.55 177.157 45.055 177.335 44.556 177.512 44.066 177.688 43.586 177.859 43.101 178.019 42.65 178.168 42.234V42.234L177.924 41.921 176.67 40.309ZM182.412 35.841L178.298 39.042 179.515 40.606C179.839 41.023 180.181 41.319 180.541 41.494 180.91 41.671 181.261 41.758 181.594 41.756 181.928 41.754 182.242 41.695 182.536 41.577 182.837 41.455 183.085 41.317 183.283 41.163V41.163C183.481 41.009 183.673 40.804 183.86 40.547 184.041 40.295 184.169 40.006 184.243 39.683 184.317 39.359 184.313 39.001 184.232 38.609 184.155 38.223 183.958 37.827 183.642 37.421V37.421ZM183.065 59.892L178.256 51.369 190.868 44.254 195.542 52.538 193.816 53.512 190.221 47.139 186.539 49.216 189.74 54.89 187.978 55.883 184.778 50.21 181.096 52.287 184.826 58.899ZM187.341 72.142L186.612 70.115C186.73 70.001 186.898 69.839 187.119 69.631 187.339 69.422 187.596 69.185 187.889 68.921 188.181 68.651 188.501 68.359 188.849 68.047 189.195 67.728 189.556 67.4 189.932 67.064V67.064L188.202 62.254 183.71 62.044 182.981 60.017 199.432 60.958C199.281 61.099 199.01 61.347 198.62 61.704 198.226 62.069 197.755 62.501 197.207 63 196.653 63.502 196.047 64.058 195.389 64.669 194.724 65.283 194.051 65.906 193.372 66.539 192.693 67.172 192.024 67.795 191.365 68.406 190.709 69.023 190.105 69.586 189.553 70.094 189.001 70.602 188.532 71.037 188.144 71.4 187.76 71.754 187.492 72.002 187.341 72.142ZM194.374 62.54L190.191 62.348 191.415 65.753C191.765 65.425 192.104 65.116 192.432 64.826 192.751 64.531 193.048 64.258 193.325 64.007 193.598 63.765 193.834 63.551 194.034 63.364 194.233 63.177 194.394 63.036 194.519 62.941V62.941C194.54 62.919 194.619 62.858 194.755 62.759 194.886 62.662 195.011 62.577 195.129 62.506V62.506C194.992 62.526 194.841 62.537 194.676 62.539 194.505 62.543 194.404 62.543 194.374 62.54ZM34.879 125.673L33.298 127.178C33.138 127.067 32.946 126.9 32.719 126.677 32.491 126.447 32.26 126.168 32.026 125.839 31.786 125.513 31.553 125.142 31.325 124.725 31.095 124.303 30.894 123.838 30.722 123.331V123.331C30.357 122.26 30.216 121.235 30.297 120.255 30.381 119.282 30.639 118.389 31.071 117.577 31.499 116.773 32.076 116.072 32.803 115.474 33.523 114.878 34.351 114.421 35.288 114.102V114.102C36.32 113.75 37.336 113.612 38.335 113.687 39.327 113.765 40.247 114.017 41.094 114.444 41.947 114.87 42.697 115.455 43.345 116.201 43.99 116.94 44.478 117.797 44.81 118.772V118.772C44.935 119.138 45.036 119.518 45.113 119.914 45.191 120.31 45.241 120.69 45.265 121.054 45.295 121.416 45.293 121.746 45.258 122.044 45.224 122.342 45.17 122.582 45.096 122.765V122.765C44.907 122.715 44.752 122.681 44.632 122.665 44.517 122.64 44.393 122.614 44.262 122.587 44.131 122.56 43.982 122.532 43.815 122.503 43.654 122.472 43.438 122.435 43.165 122.391V122.391C43.224 122.185 43.255 121.96 43.257 121.716 43.258 121.465 43.244 121.213 43.214 120.958 43.178 120.705 43.13 120.45 43.071 120.191 43.014 119.938 42.951 119.713 42.884 119.514V119.514C42.635 118.783 42.269 118.149 41.785 117.612 41.304 117.081 40.755 116.667 40.139 116.369 39.524 116.077 38.871 115.902 38.178 115.845 37.488 115.793 36.813 115.88 36.152 116.105V116.105C35.511 116.323 34.936 116.655 34.429 117.099 33.918 117.552 33.505 118.072 33.189 118.659 32.869 119.255 32.676 119.907 32.61 120.617 32.535 121.322 32.622 122.04 32.871 122.771V122.771C33.004 123.163 33.172 123.528 33.373 123.867 33.574 124.207 33.777 124.506 33.98 124.766 34.176 125.029 34.36 125.242 34.53 125.406 34.698 125.563 34.814 125.652 34.879 125.673ZM39.305 125.187V125.187C40.181 124.713 41.107 124.431 42.083 124.341 43.053 124.254 43.999 124.343 44.92 124.607 45.835 124.874 46.679 125.307 47.45 125.906 48.222 126.505 48.851 127.254 49.338 128.154V128.154C49.819 129.041 50.101 129.975 50.185 130.954 50.269 131.934 50.173 132.88 49.897 133.792 49.614 134.708 49.174 135.551 48.575 136.323 47.97 137.098 47.229 137.722 46.354 138.196V138.196C45.448 138.687 44.512 138.971 43.544 139.048 42.571 139.129 41.63 139.034 40.72 138.764 39.805 138.497 38.963 138.059 38.194 137.451 37.426 136.843 36.801 136.095 36.32 135.207V135.207C35.833 134.308 35.546 133.373 35.459 132.403 35.373 131.432 35.468 130.491 35.744 129.579 36.014 128.669 36.45 127.832 37.053 127.066 37.649 126.304 38.4 125.678 39.305 125.187ZM40.323 127.109V127.109C39.674 127.461 39.131 127.909 38.694 128.454 38.261 129.005 37.945 129.603 37.748 130.249 37.555 130.901 37.487 131.573 37.547 132.266 37.609 132.964 37.811 133.629 38.153 134.26V134.26C38.495 134.892 38.939 135.418 39.483 135.84 40.03 136.267 40.629 136.575 41.278 136.763 41.923 136.945 42.595 137.004 43.293 136.942 43.988 136.874 44.666 136.66 45.327 136.302V136.302C45.971 135.954 46.511 135.507 46.948 134.962 47.381 134.411 47.696 133.813 47.893 133.167 48.087 132.515 48.155 131.843 48.095 131.15 48.04 130.464 47.841 129.805 47.498 129.174V129.174C47.156 128.542 46.71 128.01 46.159 127.576 45.611 127.149 45.013 126.841 44.364 126.653 43.719 126.471 43.044 126.413 42.34 126.479 41.639 126.55 40.967 126.76 40.323 127.109ZM42.068 144.263L53.703 134.605C53.635 134.82 53.522 135.24 53.363 135.865 53.198 136.494 53.008 137.22 52.792 138.042 52.581 138.869 52.355 139.748 52.115 140.678 51.87 141.603 51.642 142.474 51.432 143.292 51.216 144.114 51.032 144.826 50.88 145.427 50.723 146.033 50.618 146.433 50.567 146.625V146.625C50.645 146.613 50.865 146.597 51.228 146.578 51.591 146.549 52.042 146.514 52.58 146.473 53.117 146.441 53.727 146.401 54.41 146.354 55.092 146.307 55.789 146.261 56.501 146.216 57.213 146.162 57.918 146.11 58.615 146.059 59.318 146.004 59.96 145.96 60.54 145.927 61.13 145.895 61.638 145.861 62.065 145.823 62.492 145.786 62.792 145.766 62.966 145.763V145.763L51.331 155.421 49.851 153.638 56.09 148.458C56.174 148.389 56.266 148.326 56.368 148.268 56.475 148.205 56.549 148.157 56.591 148.122V148.122C56.388 148.132 56.058 148.16 55.602 148.204 55.145 148.248 54.622 148.291 54.031 148.332 53.439 148.383 52.816 148.438 52.161 148.498 51.511 148.553 50.895 148.606 50.313 148.658 49.731 148.71 49.219 148.756 48.777 148.797 48.332 148.833 48.021 148.862 47.846 148.884V148.884C47.883 148.738 47.959 148.437 48.074 147.981 48.193 147.53 48.331 147.002 48.488 146.396 48.645 145.79 48.813 145.149 48.991 144.473 49.175 143.792 49.344 143.163 49.498 142.586 49.658 142.004 49.794 141.504 49.905 141.086 50.011 140.663 50.083 140.41 50.119 140.327V140.327C50.078 140.361 50.016 140.425 49.936 140.519 49.86 140.608 49.78 140.687 49.697 140.757V140.757L43.457 145.936ZM62.246 164.404L54.68 158.198 63.864 147.002 71.218 153.034 69.961 154.566 64.304 149.926 61.623 153.194 66.659 157.326 65.377 158.889 60.34 154.758 57.659 158.026 63.528 162.841ZM79.101 158.467V158.467L77.526 159.589C77.155 159.14 76.77 158.727 76.372 158.349 75.964 157.973 75.548 157.659 75.123 157.407V157.407C74.406 156.982 73.744 156.79 73.136 156.831 72.529 156.873 72.09 157.121 71.821 157.575V157.575C71.589 157.966 71.557 158.372 71.724 158.794 71.895 159.21 72.155 159.648 72.504 160.108 72.851 160.573 73.237 161.058 73.662 161.562 74.084 162.073 74.437 162.613 74.721 163.183 75.005 163.753 75.169 164.354 75.211 164.986 75.251 165.624 75.059 166.298 74.638 167.009V167.009C74.313 167.557 73.917 167.991 73.45 168.313 72.99 168.639 72.466 168.844 71.88 168.929 71.293 169.015 70.656 168.968 69.967 168.787 69.275 168.613 68.533 168.291 67.74 167.821V167.821C67.239 167.524 66.805 167.219 66.439 166.907 66.073 166.595 65.759 166.287 65.498 165.983 65.234 165.685 65.018 165.399 64.849 165.126 64.677 164.858 64.535 164.62 64.422 164.411V164.411L66.222 163.269C66.521 163.801 66.902 164.315 67.364 164.81 67.836 165.302 68.299 165.683 68.754 165.953V165.953C68.987 166.091 69.288 166.234 69.657 166.382 70.03 166.524 70.413 166.614 70.809 166.652 71.2 166.695 71.58 166.66 71.946 166.547 72.309 166.439 72.6 166.202 72.817 165.835V165.835C73.014 165.503 73.095 165.168 73.058 164.831 73.022 164.495 72.908 164.148 72.718 163.791 72.531 163.443 72.294 163.086 72.007 162.719 71.726 162.356 71.436 161.982 71.135 161.599 70.838 161.211 70.553 160.821 70.281 160.431 70.011 160.035 69.804 159.628 69.657 159.211 69.511 158.793 69.445 158.367 69.458 157.934 69.476 157.504 69.622 157.059 69.895 156.599V156.599C70.148 156.173 70.479 155.807 70.89 155.499 71.31 155.189 71.787 154.976 72.321 154.859 72.855 154.743 73.434 154.736 74.059 154.838 74.685 154.95 75.337 155.206 76.013 155.607V155.607C76.426 155.853 76.808 156.126 77.157 156.428 77.511 156.733 77.825 157.021 78.097 157.293 78.366 157.57 78.589 157.817 78.768 158.033 78.941 158.246 79.052 158.391 79.101 158.467ZM80.11 158.021L88.757 161.705 87.945 163.613 84.589 162.183 79.725 173.598 77.715 172.741 82.579 161.326 79.297 159.928ZM85.898 175.919L90.355 162.141 92.424 162.81 87.967 176.588ZM98.237 166.025L96.534 165.679 95.683 169.861 97.605 170.252C98.309 170.395 98.879 170.293 99.316 169.947 99.753 169.6 100.032 169.128 100.154 168.53V168.53C100.297 167.827 100.189 167.269 99.83 166.857 99.472 166.446 98.94 166.168 98.237 166.025ZM97.055 172.038L95.313 171.684 94.438 175.986 96.44 176.393C96.818 176.47 97.182 176.499 97.532 176.48 97.882 176.454 98.199 176.377 98.481 176.248 98.768 176.126 99.009 175.944 99.204 175.7 99.407 175.451 99.545 175.144 99.62 174.779V174.779C99.702 174.374 99.684 174.021 99.565 173.72 99.453 173.421 99.272 173.156 99.022 172.925 98.777 172.703 98.482 172.518 98.139 172.372 97.795 172.226 97.434 172.115 97.056 172.038ZM96.214 178.369L91.892 177.49 94.777 163.3 98.532 164.063C99.229 164.205 99.842 164.402 100.371 164.655 100.909 164.902 101.344 165.212 101.676 165.584 102.007 165.962 102.232 166.402 102.351 166.903 102.469 167.411 102.461 167.997 102.326 168.661V168.661C102.251 169.026 102.145 169.381 102.005 169.726 101.861 170.063 101.676 170.361 101.451 170.619 101.232 170.879 100.963 171.094 100.645 171.264 100.335 171.429 99.972 171.532 99.556 171.572V171.572C99.883 171.7 100.196 171.878 100.495 172.105 100.795 172.332 101.05 172.605 101.262 172.924 101.467 173.243 101.612 173.614 101.699 174.04 101.778 174.464 101.764 174.945 101.654 175.483V175.483C101.517 176.16 101.269 176.714 100.912 177.146 100.555 177.572 100.129 177.9 99.633 178.131 99.138 178.355 98.594 178.48 98.001 178.504 97.414 178.537 96.818 178.492 96.214 178.369ZM113.557 180L104.181 179.483 104.979 165.024 107.171 165.145 106.487 177.534 113.671 177.93ZM125.901 178.875L116.151 179.712 114.912 165.284 124.389 164.47 124.558 166.445 117.268 167.071 117.63 171.283 124.12 170.725 124.293 172.74 117.803 173.298 118.165 177.51 125.728 176.86ZM133.825 162.857V162.857L133.481 164.76C132.901 164.698 132.337 164.671 131.788 164.678 131.234 164.693 130.717 164.759 130.236 164.876V164.876C129.426 165.072 128.818 165.396 128.412 165.85 128.006 166.304 127.865 166.787 127.99 167.301V167.301C128.096 167.742 128.357 168.056 128.771 168.241 129.184 168.42 129.676 168.552 130.247 168.637 130.82 168.728 131.435 168.806 132.091 168.87 132.75 168.941 133.38 169.081 133.981 169.291 134.583 169.501 135.119 169.818 135.591 170.24 136.064 170.669 136.398 171.286 136.592 172.089V172.089C136.742 172.708 136.762 173.295 136.653 173.852 136.55 174.406 136.319 174.919 135.958 175.389 135.598 175.86 135.109 176.271 134.49 176.623 133.873 176.981 133.116 177.269 132.221 177.486V177.486C131.654 177.623 131.131 177.707 130.651 177.74 130.171 177.772 129.732 177.771 129.333 177.735 128.935 177.705 128.581 177.652 128.269 177.574 127.959 177.502 127.691 177.431 127.465 177.361V177.361L127.956 175.287C128.541 175.459 129.172 175.56 129.849 175.592 130.531 175.615 131.129 175.565 131.642 175.44V175.44C131.906 175.377 132.221 175.269 132.589 175.117 132.955 174.959 133.292 174.755 133.601 174.506 133.912 174.264 134.159 173.974 134.342 173.637 134.527 173.306 134.57 172.934 134.469 172.519V172.519C134.378 172.144 134.202 171.848 133.941 171.633 133.68 171.417 133.357 171.248 132.971 171.125 132.594 171.007 132.175 170.917 131.714 170.854 131.259 170.79 130.791 170.725 130.308 170.661 129.824 170.59 129.348 170.51 128.88 170.421 128.411 170.325 127.978 170.179 127.582 169.982 127.186 169.785 126.841 169.527 126.548 169.208 126.261 168.887 126.055 168.466 125.929 167.946V167.946C125.813 167.465 125.794 166.971 125.874 166.464 125.958 165.949 126.151 165.463 126.452 165.007 126.753 164.551 127.162 164.142 127.681 163.779 128.208 163.422 128.853 163.15 129.617 162.966V162.966C130.085 162.853 130.549 162.782 131.009 162.754 131.476 162.725 131.902 162.713 132.286 162.717 132.672 162.728 133.005 162.749 133.284 162.779 133.556 162.811 133.737 162.837 133.825 162.857ZM150.753 167.26L152.391 168.702C152.295 168.871 152.145 169.078 151.943 169.323 151.734 169.571 151.476 169.825 151.169 170.087 150.865 170.354 150.516 170.62 150.121 170.883 149.72 171.149 149.275 171.39 148.786 171.607V171.607C147.751 172.064 146.742 172.295 145.759 172.3 144.782 172.302 143.87 172.124 143.023 171.765 142.184 171.41 141.435 170.896 140.776 170.225 140.119 169.56 139.59 168.775 139.19 167.87V167.87C138.749 166.873 138.522 165.873 138.509 164.872 138.499 163.876 138.67 162.938 139.021 162.057 139.369 161.169 139.887 160.371 140.572 159.66 141.252 158.952 142.063 158.39 143.005 157.974V157.974C143.358 157.818 143.728 157.684 144.116 157.572 144.503 157.46 144.877 157.376 145.238 157.32 145.596 157.258 145.925 157.232 146.225 157.24 146.524 157.248 146.769 157.281 146.957 157.338V157.338C146.924 157.531 146.904 157.688 146.898 157.809 146.883 157.926 146.868 158.051 146.853 158.184 146.838 158.317 146.823 158.468 146.809 158.637 146.792 158.8 146.774 159.019 146.755 159.294V159.294C146.544 159.254 146.317 159.243 146.074 159.262 145.824 159.283 145.574 159.32 145.322 159.372 145.074 159.43 144.823 159.5 144.571 159.582 144.324 159.661 144.105 159.743 143.913 159.828V159.828C143.207 160.14 142.607 160.561 142.115 161.089 141.629 161.615 141.265 162.198 141.022 162.839 140.785 163.477 140.669 164.143 140.672 164.838 140.682 165.53 140.828 166.195 141.11 166.833V166.833C141.384 167.453 141.764 167.996 142.252 168.462 142.748 168.931 143.302 169.297 143.915 169.56 144.536 169.826 145.203 169.961 145.916 169.964 146.625 169.977 147.333 169.827 148.039 169.515V169.515C148.417 169.348 148.766 169.149 149.086 168.918 149.407 168.688 149.688 168.46 149.929 168.235 150.173 168.016 150.369 167.815 150.517 167.631 150.659 167.449 150.738 167.326 150.753 167.26ZM149.88 162.893V162.893C149.331 162.062 148.968 161.165 148.793 160.2 148.622 159.241 148.627 158.292 148.809 157.351 148.995 156.416 149.352 155.538 149.881 154.717 150.411 153.896 151.102 153.203 151.955 152.638V152.638C152.797 152.082 153.702 151.718 154.67 151.549 155.639 151.38 156.589 151.393 157.522 151.588 158.459 151.788 159.338 152.153 160.159 152.682 160.984 153.217 161.671 153.9 162.221 154.73V154.73C162.789 155.589 163.154 156.497 163.316 157.454 163.481 158.417 163.469 159.363 163.28 160.292 163.094 161.227 162.732 162.104 162.194 162.923 161.655 163.743 160.965 164.431 160.123 164.988V164.988C159.27 165.552 158.364 165.92 157.405 166.091 156.446 166.262 155.5 166.25 154.567 166.055 153.638 165.866 152.765 165.505 151.95 164.972 151.138 164.445 150.448 163.752 149.88 162.893ZM151.705 161.71V161.71C152.112 162.326 152.607 162.828 153.188 163.215 153.775 163.599 154.398 163.86 155.059 164 155.726 164.136 156.401 164.144 157.086 164.024 157.776 163.901 158.42 163.641 159.019 163.245V163.245C159.618 162.848 160.104 162.361 160.476 161.781 160.854 161.198 161.108 160.576 161.238 159.913 161.363 159.254 161.363 158.579 161.24 157.889 161.111 157.203 160.839 156.546 160.424 155.919V155.919C160.02 155.309 159.528 154.81 158.947 154.422 158.36 154.039 157.736 153.777 157.075 153.638 156.409 153.502 155.733 153.494 155.049 153.614 154.37 153.729 153.731 153.986 153.132 154.382V154.382C152.533 154.778 152.042 155.269 151.659 155.856 151.281 156.439 151.027 157.062 150.897 157.725 150.772 158.384 150.773 159.061 150.9 159.757 151.033 160.449 151.301 161.1 151.705 161.71ZM170.193 157.057L168.597 158.565 158.653 148.039 161.526 145.324C162.078 144.803 162.652 144.395 163.25 144.1 163.848 143.816 164.449 143.658 165.054 143.627 165.658 143.596 166.245 143.699 166.813 143.936 167.386 144.177 167.924 144.564 168.426 145.096V145.096C168.701 145.386 168.944 145.702 169.154 146.044 169.37 146.381 169.537 146.745 169.655 147.136 169.778 147.523 169.844 147.928 169.851 148.35 169.863 148.767 169.798 149.191 169.657 149.624V149.624C170.622 149.867 171.681 150.144 172.832 150.454 173.987 150.77 175.132 151.059 176.265 151.321V151.321L174.359 153.121C173.883 153.002 173.386 152.876 172.868 152.741 172.344 152.611 171.828 152.484 171.318 152.359 170.805 152.23 170.3 152.1 169.805 151.971 169.306 151.847 168.842 151.731 168.414 151.623V151.623L168.126 151.895 166.641 153.298ZM161.644 148.009L165.224 151.798 166.665 150.437C167.049 150.074 167.311 149.705 167.451 149.331 167.591 148.947 167.644 148.589 167.611 148.257 167.577 147.925 167.487 147.619 167.342 147.337 167.192 147.05 167.031 146.815 166.859 146.633V146.633C166.687 146.451 166.464 146.279 166.191 146.118 165.922 145.962 165.623 145.862 165.293 145.819 164.964 145.776 164.608 145.814 164.226 145.933 163.849 146.046 163.473 146.28 163.099 146.634V146.634ZM179.177 147.463L177.829 149.196 166.401 140.302 168.828 137.183C169.294 136.584 169.8 136.093 170.346 135.711 170.894 135.339 171.464 135.092 172.057 134.969 172.65 134.847 173.245 134.86 173.843 135.007 174.446 135.159 175.036 135.459 175.614 135.909V135.909C175.929 136.154 176.217 136.43 176.477 136.735 176.742 137.035 176.962 137.37 177.138 137.739 177.319 138.103 177.445 138.492 177.516 138.908 177.591 139.319 177.592 139.749 177.518 140.197V140.197C178.509 140.291 179.597 140.404 180.782 140.536 181.972 140.672 183.147 140.784 184.307 140.871V140.871L182.697 142.94C182.209 142.895 181.698 142.845 181.165 142.791 180.628 142.742 180.098 142.695 179.576 142.649 179.048 142.599 178.53 142.547 178.021 142.495 177.509 142.448 177.032 142.404 176.593 142.362V142.362L176.349 142.675 175.095 144.287ZM169.353 139.818L173.467 143.02 174.684 141.456C175.008 141.039 175.211 140.635 175.293 140.243 175.373 139.842 175.371 139.48 175.288 139.157 175.204 138.835 175.069 138.545 174.882 138.288 174.691 138.027 174.496 137.82 174.298 137.666V137.666C174.1 137.512 173.854 137.376 173.559 137.259 173.27 137.145 172.959 137.092 172.627 137.1 172.295 137.107 171.949 137.199 171.589 137.374 171.234 137.544 170.898 137.832 170.582 138.238V138.238ZM190.337 130.031L185.528 138.555 172.916 131.439 177.589 123.155 179.315 124.129 175.72 130.501 179.402 132.578 182.603 126.905 184.364 127.899 181.163 133.572 184.845 135.649 188.575 129.038ZM195.198 116.505L194.469 118.532C194.306 118.545 194.073 118.562 193.771 118.583 193.468 118.604 193.119 118.622 192.725 118.639 192.328 118.662 191.895 118.682 191.428 118.701 190.958 118.727 190.471 118.75 189.967 118.77V118.77L188.237 123.58 191.567 126.603 190.838 128.63 178.754 117.427C178.96 117.415 179.327 117.395 179.855 117.369 180.391 117.339 181.03 117.306 181.77 117.269 182.516 117.235 183.338 117.193 184.235 117.141 185.138 117.091 186.054 117.039 186.981 116.983 187.908 116.928 188.82 116.874 189.717 116.823 190.616 116.764 191.44 116.715 192.189 116.675 192.938 116.635 193.577 116.598 194.107 116.566 194.629 116.537 194.992 116.517 195.198 116.505ZM183.661 119.429L186.764 122.24 187.988 118.836C187.51 118.866 187.052 118.888 186.614 118.904 186.181 118.928 185.777 118.948 185.404 118.965 185.04 118.978 184.721 118.993 184.448 119.01 184.176 119.027 183.961 119.033 183.805 119.027V119.027C183.775 119.031 183.675 119.027 183.506 119.017 183.344 119.009 183.194 118.995 183.057 118.974V118.974C183.176 119.046 183.299 119.133 183.427 119.237 183.562 119.343 183.64 119.407 183.661 119.429ZM27.804 92.911C27.804 91.951 28.582 91.173 29.542 91.173 30.501 91.173 31.279 91.951 31.279 92.911 31.279 93.87 30.501 94.648 29.542 94.648 28.582 94.648 27.804 93.87 27.804 92.911ZM192.433 92.911C192.433 91.951 193.211 91.173 194.171 91.173 195.131 91.173 195.909 91.951 195.909 92.911 195.909 93.87 195.131 94.648 194.171 94.648 193.211 94.648 192.433 93.87 192.433 92.911Z" fill="#111111" data-fill-palette-color="primary"></path></svg></g></svg></g></svg></g></svg></g></svg></g></svg></g><defs></defs></svg><rect width="320" height="360" fill="none" stroke="none" visibility="hidden"></rect></g></svg></g></svg>